<?xml version="1.0" encoding="UTF-8" standalone="no"?>
<!-- Created with Inkscape (http://www.inkscape.org/) -->

<svg
   xmlns:dc="http://purl.org/dc/elements/1.1/"
   xmlns:cc="http://creativecommons.org/ns#"
   xmlns:rdf="http://www.w3.org/1999/02/22-rdf-syntax-ns#"
   xmlns:svg="http://www.w3.org/2000/svg"
   xmlns="http://www.w3.org/2000/svg"
   xmlns:xlink="http://www.w3.org/1999/xlink"
   xmlns:sodipodi="http://sodipodi.sourceforge.net/DTD/sodipodi-0.dtd"
   xmlns:inkscape="http://www.inkscape.org/namespaces/inkscape"
   version="1.0"
   width="359.71436"
   height="332.29645"
   id="svg2"
   inkscape:version="0.48.2 r9819"
   sodipodi:docname="corkami_maure_xbr2.svg"
   inkscape:export-filename="corkami_maure_xbr2.png"
   inkscape:export-xdpi="100.01173"
   inkscape:export-ydpi="100.01173">
  <title
     id="title3070">Corkami (maure logo)</title>
  <sodipodi:namedview
     pagecolor="#ffffff"
     bordercolor="#666666"
     borderopacity="1"
     objecttolerance="10"
     gridtolerance="10"
     guidetolerance="10"
     inkscape:pageopacity="0"
     inkscape:pageshadow="2"
     inkscape:window-width="825"
     inkscape:window-height="736"
     id="namedview39"
     showgrid="false"
     fit-margin-top="0"
     fit-margin-left="0"
     fit-margin-right="0"
     fit-margin-bottom="0"
     showborder="true"
     inkscape:zoom="1.3150908"
     inkscape:cx="179.85718"
     inkscape:cy="166.14822"
     inkscape:window-x="1258"
     inkscape:window-y="863"
     inkscape:window-maximized="0"
     inkscape:current-layer="svg2"
     showguides="false">
    <sodipodi:guide
       position="0,0"
       orientation="0,359.71436"
       id="guide3016" />
    <sodipodi:guide
       position="359.71436,0"
       orientation="-332.29645,0"
       id="guide3018" />
    <sodipodi:guide
       position="359.71436,332.29645"
       orientation="0,-359.71436"
       id="guide3020" />
    <sodipodi:guide
       position="0,332.29645"
       orientation="332.29645,0"
       id="guide3022" />
  </sodipodi:namedview>
  <metadata
     id="metadata41">
    <rdf:RDF>
      <cc:Work
         rdf:about="">
        <dc:format>image/svg+xml</dc:format>
        <dc:type
           rdf:resource="http://purl.org/dc/dcmitype/StillImage" />
        <dc:title>Corkami (maure logo)</dc:title>
        <dc:description>now using xBR 2x scale</dc:description>
        <cc:license
           rdf:resource="http://creativecommons.org/licenses/by/3.0/" />
      </cc:Work>
      <cc:License
         rdf:about="http://creativecommons.org/licenses/by/3.0/">
        <cc:permits
           rdf:resource="http://creativecommons.org/ns#Reproduction" />
        <cc:permits
           rdf:resource="http://creativecommons.org/ns#Distribution" />
        <cc:requires
           rdf:resource="http://creativecommons.org/ns#Notice" />
        <cc:requires
           rdf:resource="http://creativecommons.org/ns#Attribution" />
        <cc:permits
           rdf:resource="http://creativecommons.org/ns#DerivativeWorks" />
      </cc:License>
    </rdf:RDF>
  </metadata>
  <defs
     id="defs4" />
  <g
     transform="matrix(0.54012909,-0.02491955,0.05654526,0.40742407,-40.374853,-37.25981)"
     id="g3024"
     style="stroke:#000000;stroke-width:0.39561293">
    <g
       id="g3026"
       style="stroke:#000000;stroke-width:0.39561293" />
    <g
       id="g3028"
       style="stroke:#000000;stroke-width:0.39561293">
      <g
         style="fill:#ffffff;fill-opacity:1;stroke:#000000;stroke-width:2.12491488;stroke-opacity:1"
         id="g3030" />
      <g
         style="stroke:#000000;stroke-width:2.12491488;stroke-opacity:1"
         id="g3042" />
      <g
         style="stroke:#000000;stroke-width:6.37474537;stroke-linecap:round;stroke-linejoin:round;stroke-miterlimit:4;stroke-opacity:1;stroke-dasharray:none"
         id="g3054">
        <path
           d="m 568.92857,552.71429 c -8.4729,0.17513 -57.59055,61.08317 -87.85714,90.71428 37.17793,3.07856 55.58929,2.08608 80.35714,-0.35714 7.9067,-2.97503 32.32583,-1.50239 29.28572,-43.21429 -0.49059,-6.35658 -1.44683,-10.38489 -1.07143,-21.07143 3.6681,-12.68617 7.90157,-20.46196 12.85714,-32.5"
           transform="translate(34.85717,99.21931)"
           style="color:#000000;fill:#ffffff;fill-opacity:1;fill-rule:nonzero;stroke:#000000;stroke-width:6.37474537;stroke-linecap:round;stroke-linejoin:round;stroke-miterlimit:4;stroke-opacity:1;stroke-dasharray:none;stroke-dashoffset:0;marker:none;visibility:visible;display:inline;overflow:visible"
           id="path3056"
           inkscape:connector-curvature="0"
           sodipodi:nodetypes="cccccc" />
        <path
           d="m 568.92857,552.71429 c -0.53923,15.05946 -0.79115,30.62569 -3.92857,34.64285 7.67761,2.79344 16.02179,8.47537 25.71429,20"
           transform="translate(34.85717,99.21931)"
           style="color:#000000;fill:none;stroke:#000000;stroke-width:6.37474537;stroke-linecap:round;stroke-linejoin:round;stroke-miterlimit:4;stroke-opacity:1;stroke-dasharray:none;stroke-dashoffset:0;marker:none;visibility:visible;display:inline;overflow:visible"
           id="path3062"
           inkscape:connector-curvature="0" />
      </g>
    </g>
    <g
       id="g3066"
       style="stroke:#000000;stroke-width:0.39561293" />
  </g>
  <image
     sodipodi:absref="c:\corkami\trunk\maintenon_xbr2.png"
     xlink:href="maintenon_xbr2.png"
     y="40.296448"
     x="0"
     id="image3013"
     height="292"
     width="324" />
  <g
     style="stroke:#000000;stroke-width:0.39561293"
     id="g3015"
     transform="matrix(0.54012909,-0.02491955,0.05654526,0.40742407,-40.374853,-37.259811)">
    <g
       style="stroke:#000000;stroke-width:0.39561293"
       id="g3017" />
    <g
       style="stroke:#000000;stroke-width:0.39561293"
       id="g3019">
      <g
         id="g3021"
         style="fill:#ffffff;fill-opacity:1;stroke:#000000;stroke-width:2.12491488;stroke-opacity:1">
        <path
           inkscape:connector-curvature="0"
           id="path3023"
           style="color:#000000;fill:#ffffff;fill-opacity:1;fill-rule:nonzero;stroke:#000000;stroke-width:6.37474537;stroke-linecap:round;stroke-linejoin:round;stroke-miterlimit:4;stroke-opacity:1;stroke-dasharray:none;stroke-dashoffset:0;marker:none;visibility:visible;display:inline;overflow:visible"
           transform="translate(34.85717,99.21931)"
           d="m 79.296975,237.63441 c -14.523896,-8.93003 -19.901059,-20.30497 -5.091373,-54.56855 -3.134626,-10.137 1.373875,-15.90649 7.576144,-20.70812 1.05459,-3.61502 0.761403,-9.92559 0.505076,-16.16245 -2.4925,-19.73283 7.426286,-20.84874 12.121831,-29.7995 4.815947,-13.55717 12.586937,-22.950181 21.213207,-25.506347 29.93438,0.151623 30.30772,16.513837 49.05331,20.414977 40.14111,36.20795 74.63163,44.40551 91.90358,50.56854 16.63318,6.17776 37.4101,18.57116 62.12438,36.87057 31.82268,6.81833 42.8506,15.12199 56.56854,23.23351 11.21504,1.85461 18.39459,-0.87656 58.08377,33.33503 17.42542,-4.28446 43.58787,36.82155 71.72084,36.87057 l 7.57614,31.31473 -18.68783,14.64721 c -13.20667,-9.85512 -61.77858,-10.48453 -104.55078,-12.6269 17.80799,-70.177 -56.32366,-81.3766 -78.7919,-39.39595 C 237.08328,285.13042 163.36932,283.394 79.296975,237.63441 z" />
        <path
           inkscape:connector-curvature="0"
           id="path3025"
           style="color:#000000;fill:none;stroke:#000000;stroke-width:6.37474537;stroke-linecap:round;stroke-linejoin:round;stroke-miterlimit:4;stroke-opacity:1;stroke-dasharray:none;stroke-dashoffset:0;marker:none;visibility:visible;display:inline;overflow:visible"
           d="m 109.21431,272.36217 c 5.87739,7.69404 14.0515,13.09136 24.64286,16.07142 14.51385,15.09913 21.53314,15.20915 30.35714,18.92858" />
        <path
           inkscape:connector-curvature="0"
           id="path3027"
           style="color:#000000;fill:none;stroke:#000000;stroke-width:6.37474537;stroke-linecap:round;stroke-linejoin:round;stroke-miterlimit:4;stroke-opacity:1;stroke-dasharray:none;stroke-dashoffset:0;marker:none;visibility:visible;display:inline;overflow:visible"
           d="m 118.14288,233.79074 c 7.86683,12.339 18.06618,14.57041 27.85715,18.57143" />
        <path
           inkscape:connector-curvature="0"
           id="path3029"
           style="color:#000000;fill:none;stroke:#000000;stroke-width:6.37474537;stroke-linecap:round;stroke-linejoin:round;stroke-miterlimit:4;stroke-opacity:1;stroke-dasharray:none;stroke-dashoffset:0;marker:none;visibility:visible;display:inline;overflow:visible"
           transform="translate(34.85717,99.21931)"
           d="m 445.35714,311.28571 c 15.22445,5.17363 30.59141,9.77722 47.14286,9.64286" />
        <path
           inkscape:connector-curvature="0"
           id="path3031"
           style="color:#000000;fill:none;stroke:#000000;stroke-width:6.37474537;stroke-linecap:round;stroke-linejoin:round;stroke-miterlimit:4;stroke-opacity:1;stroke-dasharray:none;stroke-dashoffset:0;marker:none;visibility:visible;display:inline;overflow:visible"
           transform="translate(34.85717,99.21931)"
           d="m 458.92857,293.07143 c 11.68549,6.37211 23.10265,13.5492 36.07143,16.07143" />
      </g>
      <g
         id="g3033"
         style="stroke:#000000;stroke-width:2.12491488;stroke-opacity:1">
        <path
           inkscape:connector-curvature="0"
           id="path3035"
           style="color:#000000;fill:#ffffff;fill-opacity:1;fill-rule:nonzero;stroke:#000000;stroke-width:6.37474537;stroke-linecap:round;stroke-linejoin:round;stroke-miterlimit:4;stroke-opacity:1;stroke-dasharray:none;stroke-dashoffset:0;marker:none;visibility:visible;display:inline;overflow:visible"
           transform="translate(34.85717,99.21931)"
           d="m 527.5,301.28571 c 18.6043,-17.08665 72.97199,-73.48769 7.14286,-194.64285 -9.92148,-18.724852 -9.21286,-31.261298 7.14286,-40.357147 19.80598,-12.425023 36.8561,-22.094199 50,-27.857143 17.61449,-8.217198 12.96351,-0.02826 13.57142,4.285715 0.30074,12.731864 0.29181,26.083058 -0.35714,40.714285 19.10431,-9.668366 33.32244,-12.007467 46.78572,-13.214285 1.15574,8.452381 -3.3789,16.904762 -7.85715,25.357143 9.02072,-0.291907 17.60831,-1.450057 27.5,0 15.67459,3.650793 9.54897,7.995712 8.57143,13.214282 -4.06554,19.7201 -11.85881,30.74216 -18.57143,44.28572 -1.19699,33.40347 -13.5778,41.24392 -20.71428,61.07143 -17.33217,84.30359 -54.01788,102.48256 -93.92857,109.64285 L 532.85714,324.85714 527.5,301.28571 z" />
        <path
           inkscape:connector-curvature="0"
           id="path3037"
           style="color:#000000;fill:none;stroke:#000000;stroke-width:6.37474537;stroke-linecap:round;stroke-linejoin:round;stroke-miterlimit:4;stroke-opacity:1;stroke-dasharray:none;stroke-dashoffset:0;marker:none;visibility:visible;display:inline;overflow:visible"
           transform="translate(34.85717,99.21931)"
           d="m 536.78572,302 c 8.892,0.32057 11.96352,-5.17934 16.42857,-9.28571" />
        <path
           inkscape:connector-curvature="0"
           id="path3039"
           style="color:#000000;fill:none;stroke:#000000;stroke-width:6.37474537;stroke-linecap:round;stroke-linejoin:round;stroke-miterlimit:4;stroke-opacity:1;stroke-dasharray:none;stroke-dashoffset:0;marker:none;visibility:visible;display:inline;overflow:visible"
           transform="translate(34.85717,99.21931)"
           d="m 580,263.78571 c 28.0069,-33.06185 32.43838,-68.46041 7.14286,-134.28571 34.4938,-6.23774 67.44339,-13.37628 93.92857,-24.28572" />
        <path
           inkscape:connector-curvature="0"
           id="path3041"
           style="color:#000000;fill:none;stroke:#000000;stroke-width:6.37474537;stroke-linecap:round;stroke-linejoin:round;stroke-miterlimit:4;stroke-opacity:1;stroke-dasharray:none;stroke-dashoffset:0;marker:none;visibility:visible;display:inline;overflow:visible"
           transform="translate(34.85717,99.21931)"
           d="m 578.57143,162 c -0.84666,-19.60987 -10.18697,-25.43501 -20.18383,-37.43129 -8.71736,-10.40614 -6.88709,-14.97104 -4.45903,-16.49728 l 51.78572,-25.000002" />
        <path
           inkscape:connector-curvature="0"
           id="path3043"
           style="color:#000000;fill:none;stroke:#000000;stroke-width:6.37474537;stroke-linecap:round;stroke-linejoin:round;stroke-miterlimit:4;stroke-opacity:1;stroke-dasharray:none;stroke-dashoffset:0;marker:none;visibility:visible;display:inline;overflow:visible"
           transform="translate(34.85717,99.21931)"
           d="m 561.78572,103.78571 c 0.59354,-10.1182 -1.94011,-18.672803 -5.35715,-26.785711 25.67333,-9.049346 38.23288,-22.545923 47.85715,-40.714286" />
      </g>
      <g
         id="g3045"
         style="stroke:#000000;stroke-width:6.37474537;stroke-linecap:round;stroke-linejoin:round;stroke-miterlimit:4;stroke-opacity:1;stroke-dasharray:none">
        <path
           inkscape:connector-curvature="0"
           id="path3047"
           style="color:#000000;fill:#ffffff;fill-opacity:1;fill-rule:nonzero;stroke:#000000;stroke-width:6.37474537;stroke-linecap:round;stroke-linejoin:round;stroke-miterlimit:4;stroke-opacity:1;stroke-dasharray:none;stroke-dashoffset:0;marker:none;visibility:visible;display:inline;overflow:visible"
           transform="translate(34.85717,99.21931)"
           d="m 590.71429,599.85714 c -0.49059,-6.35658 -1.44683,-10.38489 -1.07143,-21.07143 3.6681,-12.68617 7.90157,-20.46196 12.85714,-32.5 0.15513,-7.11757 1.91944,-7.79841 -1.42857,-28.92857 10.87642,-10.96116 22.93973,-28.2435 25.71429,-55.35714 6.91277,-41.1348 -15.09889,-63.8072 -52.85715,-76.42857 -22.0952,-7.22111 -37.30925,-18.37431 -46.07143,-33.21429 l -19.02266,-1.32397 c -6.87744,47.01781 1.69594,56.35225 14.02266,62.75254 46.09568,27.66131 60.62302,44.15945 92.14286,62.5 -50.91972,37.98895 -44.43055,55.77848 -46.07143,76.42858"
           sodipodi:nodetypes="ccccccccccc" />
        <path
           inkscape:connector-curvature="0"
           id="path3049"
           style="color:#000000;fill:none;stroke:#000000;stroke-width:6.37474537;stroke-linecap:round;stroke-linejoin:round;stroke-miterlimit:4;stroke-opacity:1;stroke-dasharray:none;stroke-dashoffset:0;marker:none;visibility:visible;display:inline;overflow:visible"
           transform="translate(34.85717,99.21931)"
           d="m 523.21429,358.42857 c -2.40727,9.33438 -0.44625,19.51424 17.85714,32.85714" />
        <path
           inkscape:connector-curvature="0"
           id="path3051"
           style="color:#000000;fill:none;stroke:#000000;stroke-width:6.37474537;stroke-linecap:round;stroke-linejoin:round;stroke-miterlimit:4;stroke-opacity:1;stroke-dasharray:none;stroke-dashoffset:0;marker:none;visibility:visible;display:inline;overflow:visible"
           transform="translate(34.85717,99.21931)"
           d="m 614.28572,476.58158 c 6.2865,-3.48046 9.26159,-19.01545 13.69134,-31.16072" />
        <path
           inkscape:connector-curvature="0"
           id="path3053"
           style="color:#000000;fill:none;stroke:#000000;stroke-width:6.37474537;stroke-linecap:round;stroke-linejoin:round;stroke-miterlimit:4;stroke-opacity:1;stroke-dasharray:none;stroke-dashoffset:0;marker:none;visibility:visible;display:inline;overflow:visible"
           d="m 568.92857,552.71429 c -0.53923,15.05946 -0.79115,30.62569 -3.92857,34.64285 7.67761,2.79344 16.02179,8.47537 25.71429,20"
           transform="translate(34.85717,99.21931)" />
      </g>
      <path
         inkscape:connector-curvature="0"
         id="path3055"
         style="color:#000000;fill:#ffffff;fill-opacity:1;fill-rule:nonzero;stroke:#000000;stroke-width:6.37474537;stroke-linecap:round;stroke-linejoin:round;stroke-miterlimit:4;stroke-opacity:1;stroke-dasharray:none;stroke-dashoffset:0;marker:none;visibility:visible;display:inline;overflow:visible"
         transform="translate(34.85717,99.21931)"
         d="m 495.47982,352.28672 c -16.0404,-31.23423 2.89899,-52.77441 14.14214,-64.14469 15.6299,-2.50731 30.65735,8.18481 33.58757,38.13326 -10.64122,14.20281 -14.56113,18.20451 -9.59645,32.57742 -11.85698,-1.10563 -23.80454,0.71901 -38.13326,-6.56599 z" />
    </g>
    <g
       style="stroke:#000000;stroke-width:0.39561293"
       id="g3057" />
  </g>
</svg>
